# xmcd CD database file
#
# Track frame offsets:
#	150
#	31064
#	58742
#	94107
#	104460
#	118560
#	125125
#	137148
#	144940
#	162610
#	182860
#	215955
#	235090
#	252255
#
# Disc length: 3782 seconds
#
# Revision: 0
# Processed by: cddbd v1.5.2PL0 Copyright (c) Steve Scherf et al.
# Submitted via: CDex 1.51
#
DISCID=d30ec40e
DTITLE=Vertigo Trombone Quartet  - Developing Good Habits
DYEAR=2013
DGENRE=Jazz
TTITLE0=Developing Good Habits
TTITLE1=Noir
TTITLE2=Yearning For The Province
TTITLE3=Einstieg
TTITLE4=Wichtigtuer-Schmonzette
TTITLE5=Düdletüde
TTITLE6=Klagelied
TTITLE7=Unterhaltungsstück
TTITLE8=Ausstieg
TTITLE9=Let`s Dance
TTITLE10=Filterkaffee
TTITLE11=Unknowing Professor
TTITLE12=Breschdlengsgseltz
TTITLE13=Patience
EXTD=YEAR: 2013
EXTT0=
EXTT1=
EXTT2=
EXTT3=
EXTT4=
EXTT5=
EXTT6=
EXTT7=
EXTT8=
EXTT9=
EXTT10=
EXTT11=
EXTT12=
EXTT13=
PLAYORDER=
